<svg xmlns="http://www.w3.org/2000/svg" xmlns:xlink="http://www.w3.org/1999/xlink" width="320" height="320" version="1.1" viewBox="0 0 320 320"><title>Notely_small</title><desc>Created with Sketch.</desc><defs><rect id="path-1" width="320" height="80" x="0" y="0"/><filter id="filter-2" width="112.5%" height="150%" x="-6.2%" y="-25%" filterUnits="objectBoundingBox"><feGaussianBlur stdDeviation="15"/></filter><circle id="path-3" cx="42" cy="114" r="14"/><filter id="filter-4" width="242.9%" height="242.9%" x="-71.4%" y="-71.4%" filterUnits="objectBoundingBox"><feGaussianBlur stdDeviation="15"/></filter><circle id="path-5" cx="42" cy="204" r="14"/><filter id="filter-6" width="242.9%" height="242.9%" x="-71.4%" y="-71.4%" filterUnits="objectBoundingBox"><feGaussianBlur stdDeviation="15"/></filter><circle id="path-7" cx="42" cy="294" r="14"/><filter id="filter-8" width="242.9%" height="242.9%" x="-71.4%" y="-71.4%" filterUnits="objectBoundingBox"><feGaussianBlur stdDeviation="15"/></filter></defs><g id="Notely" fill="none" fill-rule="evenodd" stroke="none" stroke-width="1"><rect width="320" height="320" x="0" y="0" fill="#FFF"/><g id="Rectangle" fill-rule="nonzero"><use fill="#FFB648" xlink:href="#path-1"/><use fill="#000" fill-opacity="1" xlink:href="#path-1"/></g><rect id="Rectangle-3" width="120" height="20" x="68" y="104" fill="#D8DCDE" fill-rule="nonzero" rx="4"/><rect id="Rectangle-3" width="170" height="8" x="70" y="135" fill="#E9EBED" fill-rule="nonzero" rx="2"/><rect id="Rectangle-3" width="170" height="8" x="70" y="155" fill="#E9EBED" fill-rule="nonzero" rx="2"/><rect id="Rectangle-4" width="4" height="240" x="40" y="80" fill="#E9EBED" fill-rule="nonzero"/><g id="Oval-2" fill-rule="nonzero"><use fill="#FFB648" xlink:href="#path-3"/><use fill="#000" fill-opacity="1" xlink:href="#path-3"/></g><rect id="Rectangle-3" width="120" height="20" x="68" y="194" fill="#D8DCDE" fill-rule="nonzero" rx="4"/><rect id="Rectangle-3" width="170" height="8" x="70" y="225" fill="#E9EBED" fill-rule="nonzero" rx="2"/><rect id="Rectangle-3" width="170" height="8" x="70" y="245" fill="#E9EBED" fill-rule="nonzero" rx="2"/><g id="Oval-2" fill-rule="nonzero"><use fill="#FFB648" xlink:href="#path-5"/><use fill="#000" fill-opacity="1" xlink:href="#path-5"/></g><rect id="Rectangle-3" width="120" height="20" x="68" y="284" fill="#D8DCDE" fill-rule="nonzero" rx="4"/><rect id="Rectangle-3" width="170" height="8" x="70" y="315" fill="#E9EBED" fill-rule="nonzero" rx="2"/><g id="Oval-2" fill-rule="nonzero"><use fill="#FFB648" xlink:href="#path-7"/><use fill="#000" fill-opacity="1" xlink:href="#path-7"/></g></g></svg>